<mxfile host="app.diagrams.net" modified="2024-02-18T13:57:36.957Z" agent="Mozilla/5.0 (Windows NT 10.0; Win64; x64) AppleWebKit/537.36 (KHTML, like Gecko) Chrome/121.0.0.0 Safari/537.36 Edg/121.0.0.0" version="23.1.5" etag="8s1tSVd5CeWYggQ-Kf1x" type="github">
  <diagram name="Page-1" id="-iKU7-RxEtq5o7ayBaWb">
    <mxGraphModel>
      <root>
        <mxCell id="0" />
        <mxCell id="1" parent="0" />
      </root>
    </mxGraphModel>
  </diagram>
</mxfile>
